<svg width="134" height="72" viewBox="0 0 134 72" fill="none" xmlns="http://www.w3.org/2000/svg">
<rect x="0.5" y="0.5" width="133" height="71" rx="15.5" stroke="url(#paint0_linear_221_9685)" stroke-opacity="0.3"/>
<path d="M65.2834 27.0675V33.4612H69.2177C70.1523 33.4612 70.9292 33.1448 71.5406 32.5119C71.8432 32.2209 72.0827 31.8711 72.2446 31.4839C72.407 31.0967 72.4879 30.6804 72.4826 30.2608C72.4826 29.4121 72.1732 28.6713 71.5475 28.0384C71.2508 27.7203 70.889 27.4692 70.4871 27.3018C70.0856 27.1344 69.6524 27.0545 69.2177 27.0675H65.2834ZM65.2834 35.7051V43.1201H62.9316V24.8164H69.1669C70.7494 24.8164 72.0944 25.3486 73.1945 26.3987C73.7356 26.8847 74.1661 27.4807 74.4575 28.1468C74.7489 28.813 74.8949 29.5337 74.8849 30.2608C74.8849 31.8142 74.3237 33.1088 73.2019 34.1444C72.6661 34.6584 72.0336 35.0609 71.3407 35.3288C70.6484 35.5967 69.9095 35.7246 69.1669 35.7051H65.2834ZM77.258 39.2867C77.258 39.8981 77.5241 40.4087 78.0419 40.8186C78.5597 41.2286 79.1711 41.4372 79.8687 41.4372C80.8599 41.4345 81.8092 41.0388 82.5084 40.3368C82.8755 40.0128 83.169 39.6143 83.37 39.1678C83.571 38.7214 83.6741 38.2372 83.6736 37.7477C82.94 37.1723 81.9187 36.8846 80.6097 36.8846C79.6529 36.8846 78.8622 37.1147 78.2217 37.575C77.5749 38.0353 77.258 38.6035 77.258 39.2867ZM80.3003 30.1888C82.0409 30.1888 83.4076 30.6491 84.4141 31.5769C85.4211 32.5119 85.9246 33.7848 85.9246 35.4031V43.1201H83.6736V41.3796H83.5726C83.168 42.0446 82.5968 42.5926 81.9161 42.9696C81.2349 43.3467 80.4674 43.5398 79.6889 43.53C78.4232 43.5715 77.1882 43.135 76.2299 42.3074C75.7829 41.9317 75.4265 41.461 75.1848 40.9297C74.9436 40.3984 74.8235 39.8199 74.8346 39.2364C74.8346 37.9418 75.3233 36.9134 76.3018 36.1438C77.2797 35.3743 78.5888 34.9931 80.2284 34.9931C81.6167 34.9931 82.7671 35.2448 83.6736 35.7555V35.2233C83.6736 34.4034 83.3499 33.713 82.7026 33.1376C82.0769 32.5766 81.2639 32.2746 80.4299 32.2817C79.8116 32.2676 79.2002 32.413 78.6549 32.704C78.1096 32.9951 77.6484 33.4218 77.3157 33.9431L75.2445 32.6413C76.3806 31.0015 78.071 30.1888 80.3003 30.1888ZM98.8198 30.5916L90.9804 48.6436H88.5496L91.4622 42.329L86.306 30.5916H88.859L92.5914 39.596H92.6417L96.2668 30.5916H98.8198Z" fill="white"/>
<path d="M55.7838 34.1087C55.7838 33.3679 55.7262 32.6559 55.604 31.9727H45.6934V36.0218H51.3751C51.2585 36.6682 51.0124 37.2843 50.6514 37.8331C50.2905 38.3818 49.8223 38.8519 49.275 39.2151V41.8473H52.6552C54.6474 40.0205 55.7838 37.3164 55.7838 34.1087Z" fill="#4285F4"/>
<path d="M45.6932 44.3862C48.5341 44.3862 50.9218 43.4513 52.6623 41.8475L49.2748 39.2152C48.3327 39.8553 47.1172 40.2221 45.6932 40.2221C44.3804 40.2056 43.1057 39.7785 42.048 39.0007C40.9904 38.2229 40.2028 37.1335 39.7958 35.8853H36.3076V38.5895C37.1809 40.3307 38.5212 41.7949 40.1785 42.8186C41.8359 43.8422 43.7452 44.385 45.6932 44.3862Z" fill="#34A853"/>
<path d="M39.7882 35.8854C39.3497 34.5787 39.3497 33.1645 39.7882 31.8578V29.1465H36.3073C35.5659 30.6113 35.1797 32.2299 35.1797 33.8716C35.1797 35.5133 35.5659 37.132 36.3073 38.5968L39.7954 35.8854H39.7882Z" fill="#FABB05"/>
<path d="M45.6932 27.5137C47.2467 27.5137 48.6348 28.0531 49.7208 29.0959L52.727 26.0969C50.8252 24.3078 48.304 23.3256 45.6932 23.3567C43.746 23.3573 41.8372 23.899 40.1799 24.9213C38.5226 25.9436 37.1819 27.4064 36.3076 29.1462L39.7958 31.8576C40.2015 30.6081 40.9886 29.517 42.0464 28.7379C43.1042 27.9587 44.3795 27.5306 45.6932 27.5137Z" fill="#E94235"/>
<defs>
<linearGradient id="paint0_linear_221_9685" x1="67" y1="0" x2="67" y2="72" gradientUnits="userSpaceOnUse">
<stop stop-color="white"/>
<stop offset="1" stop-color="#1500FF"/>
</linearGradient>
</defs>
</svg>
