<svg width="134" height="72" viewBox="0 0 134 72" fill="none" xmlns="http://www.w3.org/2000/svg">
<rect x="0.5" y="0.5" width="133" height="71" rx="15.5" stroke="url(#paint0_linear_221_9684)" stroke-opacity="0.3"/>
<path d="M73.5106 19.603H60.4863V42.9665H73.5106V19.603Z" fill="#FF5F00"/>
<path d="M61.313 31.2881C61.3113 29.0383 61.8222 26.8177 62.807 24.7942C63.7921 22.7709 65.2252 20.9974 66.9982 19.6084C64.8023 17.8859 62.1651 16.8147 59.3882 16.5174C56.6114 16.2201 53.8068 16.7085 51.2949 17.927C48.7829 19.1454 46.665 21.0449 45.1834 23.4079C43.7018 25.7711 42.916 28.5024 42.916 31.2901C42.916 34.0779 43.7018 36.8094 45.1834 39.1724C46.665 41.5355 48.7829 43.4348 51.2949 44.6533C53.8068 45.8718 56.6114 46.3602 59.3882 46.0629C62.1651 45.7656 64.8023 44.6944 66.9982 42.9719C65.2247 41.5823 63.7911 39.8083 62.8063 37.7843C61.8212 35.76 61.3105 33.5384 61.313 31.2881Z" fill="#EB001B"/>
<path d="M91.0837 31.2915C91.0834 34.0795 90.2977 36.811 88.8155 39.1742C87.3337 41.5374 85.2155 43.4366 82.7033 44.6549C80.1911 45.8734 77.386 46.3615 74.6089 46.0637C71.8318 45.7659 69.1949 44.6942 66.999 42.9712C68.7713 41.5809 70.2042 39.8072 71.1894 37.7834C72.1745 35.7599 72.6864 33.5393 72.6864 31.2895C72.6864 29.0397 72.1745 26.8191 71.1894 24.7956C70.2042 22.7718 68.7713 20.998 66.999 19.6077C69.1951 17.8845 71.8326 16.8128 74.6099 16.515C77.3875 16.2175 80.1929 16.7061 82.7051 17.9248C85.2175 19.1436 87.3356 21.0436 88.8173 23.4072C90.2989 25.7709 91.0842 28.5032 91.0837 31.2915Z" fill="#F79E1B"/>
<path d="M49.878 55.4569V52.7101C49.878 51.6737 49.2158 50.976 48.1499 50.9669C47.8464 50.9472 47.5431 51.0093 47.2717 51.1465C47.0003 51.2837 46.7709 51.491 46.6071 51.7469C46.4578 51.4986 46.2443 51.2952 45.9889 51.1579C45.7335 51.0205 45.4457 50.9546 45.1559 50.9669C44.9036 50.9547 44.6524 51.0084 44.4272 51.1227C44.202 51.2371 44.0106 51.408 43.8718 51.6187V51.0694H42.916V55.4569H43.881V53.0269C43.881 52.2652 44.3029 51.8623 44.956 51.8623C45.6091 51.8623 45.9118 52.2743 45.9118 53.0178V55.4569H46.8712V53.0269C46.8712 52.2652 47.3115 51.8623 47.9463 51.8623C48.581 51.8623 48.9112 52.2743 48.9112 53.0178V55.4569H49.878ZM64.1561 51.0731H62.595V49.7437H61.63V51.0731H60.7384V51.9447H61.63V53.9425C61.63 54.9606 62.0245 55.5667 63.1545 55.5667C63.5766 55.5681 63.9905 55.4507 64.3488 55.228L64.0736 54.4113C63.8172 54.5638 63.5262 54.6488 63.2279 54.6585C62.7509 54.6585 62.5932 54.3655 62.5932 53.926V51.9447H64.1543L64.1561 51.0731ZM72.307 50.9632C72.0739 50.9564 71.8434 51.0126 71.6396 51.1257C71.4359 51.2388 71.2666 51.4047 71.1494 51.6059V51.0731H70.2028V55.4569H71.1585V52.9995C71.1585 52.267 71.4704 51.8715 72.096 51.8715C72.3007 51.8685 72.5039 51.9059 72.6941 51.9813L72.9876 51.0822C72.7691 51.0043 72.5389 50.964 72.307 50.9632ZM59.9844 51.421C59.4433 51.1001 58.8212 50.9412 58.1921 50.9632C57.0804 50.9632 56.3576 51.4961 56.3576 52.3659C56.3576 53.0818 56.8896 53.5213 57.8729 53.6587L58.3224 53.7227C58.8452 53.796 59.0947 53.9333 59.0947 54.1806C59.0947 54.5193 58.7461 54.7135 58.0931 54.7135C57.5661 54.7301 57.0491 54.5688 56.6255 54.2556L56.1906 54.9973C56.7472 55.3857 57.4141 55.5853 58.0931 55.5667C59.3607 55.5667 60.0963 54.9698 60.0963 54.1366C60.0963 53.3657 59.5166 52.9628 58.5627 52.8255L58.1132 52.7614C57.7005 52.7065 57.3684 52.6241 57.3684 52.3311C57.3684 52.0106 57.6803 51.8183 58.205 51.8183C58.6857 51.8254 59.1567 51.9546 59.5735 52.1938L59.9844 51.421ZM85.5798 50.9632C85.3468 50.9564 85.1162 51.0126 84.9124 51.1257C84.7087 51.2388 84.5393 51.4047 84.4222 51.6059V51.0731H83.4756V55.4569H84.4313V52.9995C84.4313 52.267 84.7432 51.8715 85.3688 51.8715C85.5735 51.8685 85.7767 51.9059 85.9669 51.9813L86.2604 51.0822C86.0419 51.0043 85.8118 50.964 85.5798 50.9632ZM73.2719 53.265C73.2719 54.5944 74.2002 55.5667 75.6146 55.5667C76.1882 55.5951 76.7516 55.4083 77.1942 55.043L76.7355 54.2721C76.4051 54.5233 76.0024 54.6613 75.5871 54.6659C74.8239 54.6659 74.2644 54.1055 74.2644 53.2632C74.2644 52.4208 74.8257 51.8696 75.5871 51.8605C76.0024 51.865 76.4051 52.003 76.7355 52.2542L77.1942 51.4833C76.7516 51.118 76.1882 50.9312 75.6146 50.9595C74.2002 50.9595 73.2719 51.9319 73.2719 53.2613V53.265ZM82.2207 53.265V51.0676H81.265V51.6005C81.102 51.3905 80.891 51.2227 80.6498 51.1109C80.4084 50.999 80.1439 50.9465 79.8781 50.9577C78.6471 50.9577 77.6766 51.9209 77.6766 53.2594C77.6766 54.5981 78.6416 55.5613 79.8781 55.5613C80.1439 55.5724 80.4084 55.5199 80.6498 55.4081C80.891 55.2963 81.102 55.1284 81.265 54.9185V55.4496H82.2207V53.265ZM78.6654 53.265C78.6654 52.4941 79.1699 51.8623 79.9973 51.8623C80.788 51.8623 81.32 52.4684 81.32 53.265C81.32 54.0615 80.788 54.6677 79.9973 54.6677C79.1699 54.6677 78.6654 54.0341 78.6654 53.265ZM67.1336 50.9632C65.8494 50.9632 64.9469 51.8989 64.9469 53.265C64.9469 54.6585 65.8843 55.5667 67.1978 55.5667C67.8536 55.5897 68.495 55.3706 68.9993 54.9515L68.5315 54.2446C68.1666 54.536 67.7146 54.6972 67.2474 54.7025C66.6309 54.7025 66.0714 54.4186 65.9338 53.6294H69.1956C69.2048 53.5103 69.214 53.3913 69.214 53.2632C69.214 51.8971 68.3591 50.9614 67.1281 50.9614L67.1336 50.9632ZM67.1153 51.8165C67.7316 51.8165 68.1261 52.201 68.227 52.8804H65.9503C66.0512 52.2468 66.4365 51.8165 67.1171 51.8165H67.1153ZM91.0837 53.265V49.3115H90.1276V51.6041C89.9646 51.3943 89.7536 51.2263 89.5124 51.1145C89.2711 51.0027 89.0065 50.9502 88.7407 50.9614C87.5097 50.9614 86.5392 51.9246 86.5392 53.2632C86.5392 54.6017 87.5042 55.5649 88.7407 55.5649C89.0065 55.5761 89.2711 55.5236 89.5124 55.4118C89.7536 55.3 89.9646 55.1321 90.1276 54.9222V55.4532H91.0837V53.265ZM87.5317 53.265C87.5317 52.4941 88.0362 51.8623 88.8636 51.8623C89.6542 51.8623 90.1863 52.4684 90.1863 53.265C90.1863 54.0615 89.6542 54.6677 88.8636 54.6677C88.0362 54.6677 87.5317 54.0341 87.5317 53.265ZM55.2624 53.265V51.0676H54.3066V51.6005C54.1436 51.3924 53.9333 51.226 53.6931 51.1151C53.4529 51.0043 53.1896 50.9522 52.9252 50.9632C51.6942 50.9632 50.7238 51.9264 50.7238 53.265C50.7238 54.6035 51.6887 55.5667 52.9252 55.5667C53.191 55.578 53.4556 55.5255 53.6969 55.4136C53.9382 55.3018 54.1491 55.1339 54.3121 54.924V55.455H55.2679L55.2624 53.265ZM51.7071 53.265C51.7071 52.4941 52.2116 51.8623 53.0389 51.8623C53.8296 51.8623 54.3616 52.4684 54.3616 53.265C54.3616 54.0615 53.8296 54.6677 53.0389 54.6677C52.2116 54.6677 51.7071 54.0359 51.7071 53.265Z" fill="white"/>
<defs>
<linearGradient id="paint0_linear_221_9684" x1="67" y1="0" x2="67" y2="72" gradientUnits="userSpaceOnUse">
<stop stop-color="white"/>
<stop offset="1" stop-color="#1500FF"/>
</linearGradient>
</defs>
</svg>
