<svg width="134" height="72" viewBox="0 0 134 72" fill="none" xmlns="http://www.w3.org/2000/svg">
<rect x="0.5" y="0.5" width="133" height="71" rx="15.5" stroke="url(#paint0_linear_221_9683)"/>
<path fill-rule="evenodd" clip-rule="evenodd" d="M36.4868 27.5325V27.4638L36.5886 27.0067H44.9819C46.0507 27.0067 47.0134 27.6796 47.2566 28.845L49.333 39.282L54.4665 27.0067H59.6475L51.6561 45.0423H46.4426L42.51 30.6488C42.2714 29.7626 42.0641 29.4372 41.3382 29.0645C40.1558 28.4571 38.2059 27.8874 36.4868 27.5325ZM68.0392 32.6378C68.0662 29.1284 71.498 26.6768 76.3728 26.6768C78.2737 26.6768 79.8001 27.0688 80.9875 27.4761L80.1208 31.3C77.9133 30.3393 75.9642 30.4066 75.2582 30.4939C73.8326 30.6699 73.1822 31.3576 73.166 32.0043C73.1184 34.131 80.0984 34.3936 80.0766 39.1527C80.0602 42.9034 76.6713 45.3236 71.4891 45.3236C69.2837 45.3023 67.156 44.8663 66.0045 44.366L66.8973 40.4138C68.0442 40.9191 69.4839 41.5895 71.963 41.5531C73.3828 41.5322 74.9011 40.9985 74.9154 39.7876C74.9226 38.9976 74.2782 38.4311 72.358 37.547C70.4882 36.6833 68.0064 35.2359 68.0392 32.6378ZM89.3219 27.0067H93.5309L97.5129 45.0423H92.951L92.3553 42.3476H86.0281L84.9995 45.0423H79.8204L87.2218 28.3295C87.576 27.5272 88.374 27.0067 89.3219 27.0067ZM90.0448 31.8799L87.448 38.6517H91.539L90.0448 31.8799ZM61.7648 27.0067H66.6957L62.6169 45.0423H57.6845L61.7648 27.0067Z" fill="#1E26AF"/>
<defs>
<linearGradient id="paint0_linear_221_9683" x1="67" y1="0" x2="67" y2="72" gradientUnits="userSpaceOnUse">
<stop stop-color="white" stop-opacity="0.3"/>
<stop offset="0.0001" stop-color="white" stop-opacity="0.3"/>
<stop offset="1" stop-color="#1500FF" stop-opacity="0.3"/>
</linearGradient>
</defs>
</svg>
