<svg width="134" height="72" viewBox="0 0 134 72" fill="none" xmlns="http://www.w3.org/2000/svg">
<rect x="0.5" y="0.5" width="133" height="71" rx="15.5" stroke="url(#paint0_linear_221_9686)" stroke-opacity="0.3"/>
<path d="M51.2484 26.585C51.9849 25.7213 52.3503 24.6016 52.265 23.4697C51.2812 23.5091 50.0941 24.1256 49.3923 24.952C48.7561 25.68 48.2118 26.854 48.3626 27.9689C49.4513 28.0541 50.5728 27.4114 51.2484 26.5916V26.585ZM54.0751 33.8388C54.0554 31.3662 56.0952 30.1791 56.187 30.1201C55.7807 29.5459 55.2474 29.0731 54.6286 28.7387C54.0098 28.4042 53.3221 28.2171 52.6191 28.1919C51.0975 28.0411 49.6481 29.0839 48.8807 29.0839C48.1134 29.0839 46.9263 28.2116 45.6605 28.2378C44.8328 28.2602 44.0251 28.4976 43.3168 28.9265C42.6085 29.3553 42.0239 29.961 41.6204 30.6842C39.9086 33.6814 41.1875 38.0953 42.8665 40.522C43.6864 41.7025 44.657 43.0405 45.9491 42.988C47.1821 42.9421 47.6477 42.1879 49.1431 42.1879C50.6384 42.1879 51.0582 42.988 52.3568 42.9683C53.6882 42.9355 54.5342 41.755 55.3475 40.5614C56.2853 39.1906 56.6789 37.8592 56.6985 37.7936C56.6723 37.774 54.1079 36.7967 54.0751 33.8388ZM69.9208 26.585C69.3773 26.0781 68.7275 25.6993 68.0187 25.4766C67.1418 25.2067 66.2271 25.0783 65.31 25.0963C64.6461 25.094 63.9826 25.129 63.3227 25.2012C62.7718 25.2668 62.2209 25.3389 61.6699 25.4307L61.5125 25.4635V42.8437H63.0997V35.5178C63.6309 35.6096 64.2475 35.6556 64.923 35.6556C65.8215 35.6556 66.6611 35.5441 67.4152 35.321C68.1509 35.1125 68.8361 34.7554 69.4288 34.2717C69.9964 33.797 70.453 33.2038 70.7666 32.5337C71.0947 31.845 71.252 31.0318 71.252 30.1201C71.2643 29.433 71.1462 28.7498 70.9044 28.1067C70.6806 27.5393 70.3463 27.0221 69.9208 26.585ZM68.4579 33.2223C67.6447 33.9044 66.4906 34.252 65.0279 34.252C64.6278 34.252 64.2409 34.2323 63.8998 34.1995C63.6309 34.1799 63.3621 34.1339 63.0997 34.0684V26.6769C63.8134 26.5466 64.5387 26.4895 65.264 26.5064C65.874 26.5064 66.484 26.585 67.0743 26.7425C67.5791 26.8802 68.0513 27.1163 68.4645 27.4245C68.8522 27.725 69.1587 28.1171 69.3565 28.5657C69.5666 29.038 69.6715 29.5954 69.6715 30.2251C69.6715 31.5367 69.2583 32.5468 68.4579 33.2223ZM80.7355 41.2107C80.7204 40.7189 80.7138 40.2269 80.7161 39.735V34.9144C80.7161 34.3373 80.6505 33.7536 80.5457 33.1764C80.4371 32.598 80.2142 32.0473 79.8898 31.5564C79.546 31.0559 79.0842 30.6481 78.5449 30.3693C77.8658 30.0392 77.116 29.8816 76.3609 29.9102C75.7182 29.9102 75.0887 29.9955 74.4919 30.1595C73.869 30.3431 73.2787 30.6186 72.7409 30.9924L72.6096 31.0842L73.1541 32.3369L73.3444 32.2057C74.2005 31.6282 75.2101 31.3199 76.2428 31.3203C76.8988 31.3203 77.4234 31.4384 77.804 31.6745C78.1907 31.9172 78.4731 32.2123 78.6568 32.5533C78.8533 32.9141 78.9845 33.2945 79.0369 33.688C79.1026 34.1012 79.129 34.4619 79.129 34.7767V34.921C76.7741 34.9078 74.9381 35.3014 73.7179 36.0884C73.1163 36.4456 72.6209 36.9564 72.2819 37.5684C71.9433 38.1804 71.7733 38.8716 71.7898 39.571C71.7898 40.0039 71.8687 40.4367 72.0193 40.863C72.1756 41.3028 72.4231 41.7046 72.7451 42.0425C73.0672 42.3804 73.4568 42.6467 73.8884 42.824C74.3606 43.0208 74.9183 43.1323 75.5345 43.1323C76.2329 43.1454 76.9252 42.9999 77.5589 42.7068C78.1931 42.4137 78.7522 41.9807 79.1942 41.4402H79.2598L79.4043 42.8503H80.9324L80.8932 42.6207C80.8078 42.1616 80.7553 41.6894 80.7421 41.2172L80.7355 41.2107ZM79.129 38.738C79.1059 39.2907 78.9161 39.8234 78.5846 40.2662C78.1846 40.8565 77.6005 41.2959 76.9252 41.5189C76.512 41.6566 76.0856 41.7222 75.6526 41.7156C75.364 41.7156 75.0821 41.6697 74.8134 41.5713C74.5457 41.477 74.3011 41.3272 74.0952 41.1317C73.8893 40.9361 73.7273 40.6993 73.6197 40.4367C73.4884 40.1482 73.4228 39.794 73.4228 39.3743C73.4228 38.6987 73.6131 38.1413 73.9738 37.7411C74.3592 37.3126 74.8432 36.9839 75.3839 36.7836C76.0006 36.554 76.6433 36.4032 77.2992 36.3442C77.9088 36.2852 78.5189 36.2589 79.129 36.2655V38.738ZM91.4983 30.1922L88.5337 38.2462C88.2659 38.9463 88.0209 39.655 87.7994 40.3712H87.7404L87.517 39.6694C87.3598 39.1972 87.1959 38.738 87.0254 38.2921L83.8639 30.1922H82.1654L86.6972 41.8403C86.8153 42.1223 86.8351 42.2469 86.8351 42.2994C86.8351 42.319 86.8351 42.4108 86.6972 42.765C86.4484 43.3947 86.1268 43.998 85.7334 44.5555C85.3727 45.0474 85.0379 45.4475 84.7493 45.7426C84.4018 46.0902 84.041 46.3722 83.6802 46.5821C83.3133 46.7985 82.9785 46.9756 82.6768 47.1068L82.5063 47.1855L83.0574 48.53L83.2345 48.4644C83.379 48.4054 83.6477 48.2873 84.0609 48.084C84.474 47.8872 84.9264 47.5593 85.4185 47.1199C85.8515 46.7395 86.2316 46.3066 86.5598 45.8344C86.8942 45.3556 87.2285 44.7916 87.5567 44.1685C87.8844 43.5389 88.2126 42.8306 88.5205 42.0501C88.842 41.2697 89.1764 40.3974 89.5305 39.4595L93.1902 30.1922H91.4916H91.4983Z" fill="white"/>
<defs>
<linearGradient id="paint0_linear_221_9686" x1="67" y1="0" x2="67" y2="72" gradientUnits="userSpaceOnUse">
<stop stop-color="white"/>
<stop offset="1" stop-color="#1500FF"/>
</linearGradient>
</defs>
</svg>
