<?xml version="1.0" encoding="UTF-8" standalone="no"?>
<!-- Created with Inkscape (http://www.inkscape.org/) -->

<svg
   version="1.1"
   id="svg2"
   width="36.904507"
   height="28.585199"
   viewBox="0 0 36.904508 28.5852"
   sodipodi:docname="default.svg"
   inkscape:version="1.2.1 (9c6d41e410, 2022-07-14)"
   xmlns:inkscape="http://www.inkscape.org/namespaces/inkscape"
   xmlns:sodipodi="http://sodipodi.sourceforge.net/DTD/sodipodi-0.dtd"
   xmlns="http://www.w3.org/2000/svg"
   xmlns:svg="http://www.w3.org/2000/svg">
  <defs
     id="defs6" />
  <sodipodi:namedview
     id="namedview4"
     pagecolor="#ffffff"
     bordercolor="#000000"
     borderopacity="0.25"
     inkscape:showpageshadow="2"
     inkscape:pageopacity="0.0"
     inkscape:pagecheckerboard="0"
     inkscape:deskcolor="#d1d1d1"
     showgrid="false"
     inkscape:zoom="28.476274"
     inkscape:cx="14.52086"
     inkscape:cy="14.2926"
     inkscape:window-width="1920"
     inkscape:window-height="1017"
     inkscape:window-x="-8"
     inkscape:window-y="-8"
     inkscape:window-maximized="1"
     inkscape:current-layer="g8" />
  <g
     inkscape:groupmode="layer"
     inkscape:label="Image"
     id="g8"
     transform="translate(-51.478546,-37.714803)"
     style="display:inline">
    <path
       style="display:inline;fill:#000000;fill-opacity:1;fill-rule:nonzero;stroke-width:0.32"
       d="m 51.57051,65.957429 c -0.08495,-0.22144 -0.116887,-6.66663 -0.07096,-14.322625 l 0.0835,-13.920001 h 18.400001 18.400001 v 14.240001 14.240005 l -18.329038,0.0826 c -14.492759,0.0653 -18.361364,-0.002 -18.483495,-0.32 z M 87.903043,51.954804 V 38.194803 H 69.983042 52.063041 v 13.760001 13.760005 h 17.920001 17.920001 z m -33.600002,0 V 40.754803 H 69.663042 85.023043 V 51.954804 63.154809 H 69.663042 54.303041 Z m 12.07803,9.411475 c 3.56823,-1.12363 3.555859,-0.71451 0.123177,-4.07356 -3.908784,-3.82496 -3.973088,-3.82102 -8.286925,0.50755 -4.994112,5.01117 -1.404663,6.57908 8.163748,3.56601 z m 18.001972,-0.77147 c 0,-1.88157 -0.0176,-1.91998 -0.88,-1.91853 -2.981469,0.005 -14.013079,2.13279 -17.200001,3.31757 -1.182442,0.43959 -0.542224,0.47758 8.4,0.49841 l 9.680001,0.0225 z m -3.6,-2.28669 c 5.21056,-0.57599 5.162442,-1.09907 -0.635556,-6.909024 -5.622867,-5.634464 -5.111197,-5.62985 -10.632858,-0.0959 l -4.139181,4.148394 2.399015,2.36809 2.399017,2.3681 3.504781,-0.74086 c 1.927629,-0.40746 5.124782,-0.91992 7.104782,-1.1388 z m -18.276027,-4.43332 c 0.689491,0 1.548899,0.20682 1.909795,0.4596 0.618048,0.4329 0.895488,0.21976 4.775252,-3.668635 5.727744,-5.740487 5.347901,-5.744496 11.27098,0.118922 l 3.92,3.880513 V 48.030001 41.394803 H 69.663042 54.943041 v 9.339898 9.339898 l 3.155175,-3.0999 c 2.906336,-2.85542 3.254048,-3.0999 4.4088,-3.0999 z M 59.158821,48.97418 c -1.477357,-1.572576 -0.3717,-4.059376 1.804844,-4.059376 1.366103,0 2.299377,0.974112 2.299377,2.4 0,2.222096 -2.591316,3.269789 -4.104221,1.659376 z m 2.845257,-0.230634 c 0.709511,-0.379718 0.860279,-2.179427 0.234964,-2.804742 -1.018701,-1.018701 -3.136001,-0.08968 -3.136001,1.376 0,1.458966 1.481364,2.188528 2.901037,1.428742 z"
       id="path407" />
  </g>
</svg>
